HIERARCHY
ROOT reference
{
  OFFSET 0 0 0
  CHANNELS 6 Xposition Yposition Zposition Zrotation Xrotation Yrotation
  JOINT Hips
  {
    OFFSET 346.547 88.4868 223.89
    CHANNELS 3 Zrotation Xrotation Yrotation
    JOINT RightUpLeg
    {
      OFFSET -9.27468 -1.51611 -0.00175448
      CHANNELS 3 Zrotation Xrotation Yrotation
      JOINT RightLeg
      {
        OFFSET -0.00464511 -41.8738 0.0184652
        CHANNELS 3 Zrotation Xrotation Yrotation
        JOINT RightFoot
        {
          OFFSET -0.626239 -42.3044 -0.171503
          CHANNELS 3 Zrotation Xrotation Yrotation
          End Site
          {
            OFFSET 0 -7.69 17.5
          }
        }
      }
    }
    JOINT LeftUpLeg
    {
      OFFSET 9.30083 -1.68454 -0.0454748
      CHANNELS 3 Zrotation Xrotation Yrotation
      JOINT LeftLeg
      {
        OFFSET 0.0692631 -41.8513 -0.097029
        CHANNELS 3 Zrotation Xrotation Yrotation
        JOINT LeftFoot
        {
          OFFSET 0.520945 -41.523 0.446349
          CHANNELS 3 Zrotation Xrotation Yrotation
          End Site
          {
            OFFSET 0 -7.69 17.5
          }
        }
      }
    }
    JOINT Spine
    {
      OFFSET 0.0770133 14.2992 0.0590021
      CHANNELS 3 Zrotation Xrotation Yrotation
      JOINT Spine1
      {
        OFFSET 0.0471461 9.71665 0.020973
        CHANNELS 3 Zrotation Xrotation Yrotation
        JOINT Spine2
        {
          OFFSET 0.051283 10.117 0.000913966
          CHANNELS 3 Zrotation Xrotation Yrotation
          JOINT Spine3
          {
            OFFSET 0.0447963 9.71088 0.00221408
            CHANNELS 3 Zrotation Xrotation Yrotation
            JOINT Neck
            {
              OFFSET 0.115655 10.3749 0.0448519
              CHANNELS 3 Zrotation Xrotation Yrotation
              JOINT Head
              {
                OFFSET 0.0937003 9.47807 0.0215077
                CHANNELS 3 Zrotation Xrotation Yrotation
                End Site
                {
                  OFFSET 0 15.95 0
                }
              }
            }
            JOINT RightShoulder
            {
              OFFSET -3.17023 6.91072 -0.0050072
              CHANNELS 3 Zrotation Xrotation Yrotation
              JOINT RightArm
              {
                OFFSET -12.7573 0.00694711 0.0313031
                CHANNELS 3 Zrotation Xrotation Yrotation
                JOINT RightForeArm
                {
                  OFFSET -26.5152 -0.0619338 -0.0331286
                  CHANNELS 3 Zrotation Xrotation Yrotation
                  JOINT RightHand
                  {
                    OFFSET -25.9971 0.0398378 -0.0269922
                    CHANNELS 3 Zrotation Xrotation Yrotation
                    JOINT RightHandThumb1
                    {
                      OFFSET -2.48905 0.190105 3.12053
                      CHANNELS 3 Zrotation Xrotation Yrotation
                      JOINT RightHandThumb2
                      {
                        OFFSET -3.68274 0 0
                        CHANNELS 3 Zrotation Xrotation Yrotation
                        JOINT RightHandThumb3
                        {
                          OFFSET -2.55832 0 0
                          CHANNELS 3 Zrotation Xrotation Yrotation
                          End Site
                          {
                            OFFSET -2.194 0 0
                          }
                        }
                      }
                    }
                    JOINT RightInHandIndex
                    {
                      OFFSET -3.22368 0.508421 1.97842
                      CHANNELS 3 Zrotation Xrotation Yrotation
                      JOINT RightHandIndex1
                      {
                        OFFSET -5.21684 -0.091368 0.999158
                        CHANNELS 3 Zrotation Xrotation Yrotation
                        JOINT RightHandIndex2
                        {
                          OFFSET -3.61937 0 0
                          CHANNELS 3 Zrotation Xrotation Yrotation
                          JOINT RightHandIndex3
                          {
                            OFFSET -2.0521 0 0
                            CHANNELS 3 Zrotation Xrotation Yrotation
                            End Site
                            {
                              OFFSET -1.805 0 0
                            }
                          }
                        }
                      }
                    }
                    JOINT RightInHandMiddle
                    {
                      OFFSET -3.38211 0.517263 0.756737
                      CHANNELS 3 Zrotation Xrotation Yrotation
                      JOINT RightHandMiddle1
                      {
                        OFFSET -5.17411 -0.084 0.313895
                        CHANNELS 3 Zrotation Xrotation Yrotation
                        JOINT RightHandMiddle2
                        {
                          OFFSET -3.94947 0 0
                          CHANNELS 3 Zrotation Xrotation Yrotation
                          JOINT RightHandMiddle3
                          {
                            OFFSET -2.47579 0 0
                            CHANNELS 3 Zrotation Xrotation Yrotation
                            End Site
                            {
                              OFFSET -1.975 0 0
                            }
                          }
                        }
                      }
                    }
                    JOINT RightInHandRing
                    {
                      OFFSET -3.36516 0.537895 -0.128947
                      CHANNELS 3 Zrotation Xrotation Yrotation
                      JOINT RightHandRing1
                      {
                        OFFSET -4.63474 -0.022105 -0.478947
                        CHANNELS 3 Zrotation Xrotation Yrotation
                        JOINT RightHandRing2
                        {
                          OFFSET -3.44238 0 0
                          CHANNELS 3 Zrotation Xrotation Yrotation
                          JOINT RightHandRing3
                          {
                            OFFSET -2.3881 0 0
                            CHANNELS 3 Zrotation Xrotation Yrotation
                            End Site
                            {
                              OFFSET -1.857 0 0
                            }
                          }
                        }
                      }
                    }
                    JOINT RightInHandPinky
                    {
                      OFFSET -3.16105 0.469368 -1.20179
                      CHANNELS 3 Zrotation Xrotation Yrotation
                      JOINT RightHandPinky1
                      {
                        OFFSET -4.14105 -0.022105 -1.09053
                        CHANNELS 3 Zrotation Xrotation Yrotation
                        JOINT RightHandPinky2
                        {
                          OFFSET -2.75653 0 0
                          CHANNELS 3 Zrotation Xrotation Yrotation
                          JOINT RightHandPinky3
                          {
                            OFFSET -1.74189 0 0
                            CHANNELS 3 Zrotation Xrotation Yrotation
                            End Site
                            {
                              OFFSET -1.645 0 0
                            }
                          }
                        }
                      }
                    }
                  }
                }
              }
            }
            JOINT LeftShoulder
            {
              OFFSET 3.25178 6.92057 -0.0384945
              CHANNELS 3 Zrotation Xrotation Yrotation
              JOINT LeftArm
              {
                OFFSET 12.8462 -0.0383255 -0.0637898
                CHANNELS 3 Zrotation Xrotation Yrotation
                JOINT LeftForeArm
                {
                  OFFSET 26.4888 -0.0608964 -0.0673835
                  CHANNELS 3 Zrotation Xrotation Yrotation
                  JOINT LeftHand
                  {
                    OFFSET 25.9932 -0.0402352 -0.0274148
                    CHANNELS 3 Zrotation Xrotation Yrotation
                    JOINT LeftHandThumb1
                    {
                      OFFSET 2.48905 0.190105 3.12053
                      CHANNELS 3 Zrotation Xrotation Yrotation
                      JOINT LeftHandThumb2
                      {
                        OFFSET 3.68274 0 0
                        CHANNELS 3 Zrotation Xrotation Yrotation
                        JOINT LeftHandThumb3
                        {
                          OFFSET 2.55832 0 0
                          CHANNELS 3 Zrotation Xrotation Yrotation
                          End Site
                          {
                            OFFSET 2.194 0 0
                          }
                        }
                      }
                    }
                    JOINT LeftInHandIndex
                    {
                      OFFSET 3.22368 0.508421 1.97842
                      CHANNELS 3 Zrotation Xrotation Yrotation
                      JOINT LeftHandIndex1
                      {
                        OFFSET 5.21684 -0.091368 0.999158
                        CHANNELS 3 Zrotation Xrotation Yrotation
                        JOINT LeftHandIndex2
                        {
                          OFFSET 3.61937 0 0
                          CHANNELS 3 Zrotation Xrotation Yrotation
                          JOINT LeftHandIndex3
                          {
                            OFFSET 2.0521 0 0
                            CHANNELS 3 Zrotation Xrotation Yrotation
                            End Site
                            {
                              OFFSET 1.805 0 0
                            }
                          }
                        }
                      }
                    }
                    JOINT LeftInHandMiddle
                    {
                      OFFSET 3.38211 0.517263 0.756737
                      CHANNELS 3 Zrotation Xrotation Yrotation
                      JOINT LeftHandMiddle1
                      {
                        OFFSET 5.17411 -0.084 0.313895
                        CHANNELS 3 Zrotation Xrotation Yrotation
                        JOINT LeftHandMiddle2
                        {
                          OFFSET 3.94947 0 0
                          CHANNELS 3 Zrotation Xrotation Yrotation
                          JOINT LeftHandMiddle3
                          {
                            OFFSET 2.47579 0 0
                            CHANNELS 3 Zrotation Xrotation Yrotation
                            End Site
                            {
                              OFFSET 1.975 0 0
                            }
                          }
                        }
                      }
                    }
                    JOINT LeftInHandRing
                    {
                      OFFSET 3.36516 0.537895 -0.128947
                      CHANNELS 3 Zrotation Xrotation Yrotation
                      JOINT LeftHandRing1
                      {
                        OFFSET 4.63474 -0.022105 -0.478947
                        CHANNELS 3 Zrotation Xrotation Yrotation
                        JOINT LeftHandRing2
                        {
                          OFFSET 3.44238 0 0
                          CHANNELS 3 Zrotation Xrotation Yrotation
                          JOINT LeftHandRing3
                          {
                            OFFSET 2.3881 0 0
                            CHANNELS 3 Zrotation Xrotation Yrotation
                            End Site
                            {
                              OFFSET 1.857 0 0
                            }
                          }
                        }
                      }
                    }
                    JOINT LeftInHandPinky
                    {
                      OFFSET 3.16105 0.469368 -1.20179
                      CHANNELS 3 Zrotation Xrotation Yrotation
                      JOINT LeftHandPinky1
                      {
                        OFFSET 4.14105 -0.022105 -1.09053
                        CHANNELS 3 Zrotation Xrotation Yrotation
                        JOINT LeftHandPinky2
                        {
                          OFFSET 2.75653 0 0
                          CHANNELS 3 Zrotation Xrotation Yrotation
                          JOINT LeftHandPinky3
                          {
                            OFFSET 1.74189 0 0
                            CHANNELS 3 Zrotation Xrotation Yrotation
                            End Site
                            {
                              OFFSET 1.645 0 0
                            }
                          }
                        }
                      }
                    }
                  }
                }
              }
            }
          }
        }
      }
    }
  }
}
MOTION
Frames: 2
Frame Time: 0.00833333
7.500000000000000000e+02 0.000000000000000000e+00 0.000000000000000000e+00 0.000000000000000000e+00 0.000000000000000000e+00 0.000000000000000000e+00 2.207634605478250300e+00 1.213333609974448279e+01 2.409390093913227915e+01 -1.770636467841726969e+01 -1.768700708400489319e+01 -2.555823131398593873e+01 1.687715652862650684e+00 1.207636993322770280e+01 -2.862246305326647811e+00 6.182125942068729785e+00 -1.072913862590114675e+01 -9.604821903116503634e+00 -3.114085449068001221e+00 -2.266657820857278338e+01 -9.943883069702089017e+00 1.282441469343529405e+01 -2.205345134792665363e+00 -1.197380360622840811e+01 -1.030731331746101276e+01 5.778220324656371254e+00 -1.125976845155937411e+01 -2.956757564509028269e-01 5.017688607073385043e+00 3.764216481695132344e-01 -7.950654275229571133e-02 1.968888952857314578e+00 5.459798444100653902e-02 -3.250493496854398728e-02 3.243200763057888736e+00 2.457470725790036892e-02 3.228049759937975383e-01 3.225851526496250482e-02 -8.705044301851093680e-01 -5.431368460549694799e-01 5.737566442453956306e-01 1.169643745234188792e+00 5.849715324020729135e+00 -5.665111390702800342e+00 -1.782149299257689989e+01 -4.996296639822515040e+00 -4.671553884955502056e+00 2.610194928943578851e+00 2.031150087251133485e+01 1.818727426314307749e+01 5.310541269380776086e+00 -7.812913126953394460e+00 -4.332470734650933508e+01 -3.462949866737475446e+01 1.626250281149962618e+00 -6.594942799445693837e-02 -4.004803824424032044e+00 0.000000000000000000e+00 0.000000000000000000e+00 0.000000000000000000e+00 7.726753986305330161e-15 -2.131839167589658872e-16 0.000000000000000000e+00 1.135352784431608452e-14 -1.917816631686137219e-15 0.000000000000000000e+00 3.724782159459615348e-16 1.996922625854618808e-15 -3.825968506279693709e-15 0.000000000000000000e+00 0.000000000000000000e+00 0.000000000000000000e+00 0.000000000000000000e+00 -3.556026722108007640e-15 -2.583311182066544232e-14 0.000000000000000000e+00 2.034520698117956998e-15 -5.401927934915120318e-15 3.724782159459615348e-16 1.996922625854618808e-15 -3.825968506279693709e-15 0.000000000000000000e+00 3.498977576874833209e-15 1.130750731664083177e-14 0.000000000000000000e+00 4.292756658047376554e-15 -1.465956316778026940e-15 0.000000000000000000e+00 3.520908776050387699e-15 7.552822994550599139e-15 3.724782159459615348e-16 1.996922625854618808e-15 -3.825968506279693709e-15 0.000000000000000000e+00 0.000000000000000000e+00 0.000000000000000000e+00 0.000000000000000000e+00 -5.003305636305441380e-15 -5.392156842049219455e-15 0.000000000000000000e+00 -8.704337999238976338e-16 -3.784273015881558873e-15 3.724782159459615348e-16 1.996922625854618808e-15 -3.825968506279693709e-15 0.000000000000000000e+00 0.000000000000000000e+00 0.000000000000000000e+00 0.000000000000000000e+00 -2.265600923037261417e-15 -4.921886045026500121e-15 0.000000000000000000e+00 -3.530382793558351941e-16 6.683992118947805869e-15 5.155335045867089683e+00 3.580901316650467514e+00 1.307577415771999796e+01 6.003282241255254448e+00 -4.455163252884500658e+00 5.312991363109297538e+00 -7.358418448181100580e+00 -1.302822935694977069e+01 4.681881958984592274e+01 3.731963858075637575e-01 -4.238957000782693996e+00 1.451970825570698942e+01 0.000000000000000000e+00 0.000000000000000000e+00 0.000000000000000000e+00 2.145952643035448421e-15 1.514449838085522754e-15 0.000000000000000000e+00 2.619173957400244196e-15 2.659136022781880494e-15 0.000000000000000000e+00 -1.934842456308237510e-15 -1.021372200467498366e-15 8.113898407045225887e-16 0.000000000000000000e+00 0.000000000000000000e+00 0.000000000000000000e+00 0.000000000000000000e+00 -3.912631253874032313e-16 6.890358871411677255e-15 0.000000000000000000e+00 -1.606251239243732651e-15 2.029720560108864849e-15 -1.934842456308237510e-15 -1.021372200467498366e-15 8.113898407045225887e-16 0.000000000000000000e+00 -2.577978625509110698e-16 2.717189763798803003e-15 0.000000000000000000e+00 -1.773075427623007323e-15 6.853372828154226268e-15 0.000000000000000000e+00 -3.461581998720695365e-15 6.990732720785961648e-16 -1.934842456308237510e-15 -1.021372200467498366e-15 8.113898407045225887e-16 0.000000000000000000e+00 0.000000000000000000e+00 0.000000000000000000e+00 0.000000000000000000e+00 -1.673841876789229083e-15 -1.360401719451579623e-15 0.000000000000000000e+00 -4.380605704979494237e-16 2.003844054582685774e-15 -1.934842456308237510e-15 -1.021372200467498366e-15 8.113898407045225887e-16 0.000000000000000000e+00 0.000000000000000000e+00 0.000000000000000000e+00 0.000000000000000000e+00 -1.381263937202555624e-15 6.083575633570516335e-15 0.000000000000000000e+00 8.678719381970139145e-16 9.724934678752951309e-15
7.500000000000000000e+02 0.000000000000000000e+00 0.000000000000000000e+00 0.000000000000000000e+00 0.000000000000000000e+00 0.000000000000000000e+00 2.202895250833454721e+00 1.222146360983542657e+01 2.412845853700105891e+01 -1.774067087825689626e+01 -1.791403619205133424e+01 -2.560468775457852786e+01 1.709371608446472734e+00 1.216129792578803404e+01 -2.862309818737208467e+00 6.251689149701447512e+00 -1.080556553164910483e+01 -9.654760750294151705e+00 -3.104025239360495014e+00 -2.289656298462497830e+01 -9.941256290234569803e+00 1.295913457533830737e+01 -2.099910365470782025e+00 -1.204105178541468213e+01 -1.033979593557316257e+01 5.758602414967037397e+00 -1.131055998783170402e+01 -2.303224450737795803e-01 5.066212660458351280e+00 2.807270772756893518e-01 -6.692873490917064516e-02 1.987700141790914365e+00 3.061269305522958117e-02 -1.021254960148482160e-02 3.274122276873169923e+00 -1.467494178030298579e-02 3.141675538044527705e-01 3.536757189909775501e-02 -8.635724283740555673e-01 -5.496301119542786884e-01 6.225923914242956769e-01 1.053935490054763502e+00 5.698333212791769853e+00 -5.773796867826371582e+00 -1.762083250850803040e+01 -5.049278193303477380e+00 -4.645604587317951228e+00 2.520586278101668132e+00 2.095899148986863381e+01 1.827243918847195303e+01 5.200167281198284641e+00 -7.207477452953807706e+00 -4.343360203697055510e+01 -3.418740271619997628e+01 1.525745794344749662e+00 -1.493650715250982031e-01 -3.955207169890602614e+00 0.000000000000000000e+00 0.000000000000000000e+00 0.000000000000000000e+00 7.966639597626153936e-15 -2.581913437821106969e-16 0.000000000000000000e+00 1.126300302004513985e-14 -1.899766527282284584e-15 0.000000000000000000e+00 3.518161435266829634e-16 2.018930630826152861e-15 -3.941328160205110172e-15 0.000000000000000000e+00 0.000000000000000000e+00 0.000000000000000000e+00 0.000000000000000000e+00 -3.780230743847055490e-15 -2.554979804029540386e-14 0.000000000000000000e+00 1.986670683719213590e-15 -5.630400094127392167e-15 3.518161435266829634e-16 2.018930630826152861e-15 -3.941328160205110172e-15 0.000000000000000000e+00 3.589733516982597782e-15 1.149147278494209212e-14 0.000000000000000000e+00 4.386511566125693539e-15 -1.034727659994063605e-15 0.000000000000000000e+00 3.426113518164315674e-15 7.236063616511866544e-15 3.518161435266829634e-16 2.018930630826152861e-15 -3.941328160205110172e-15 0.000000000000000000e+00 0.000000000000000000e+00 0.000000000000000000e+00 0.000000000000000000e+00 -4.977224881575234488e-15 -4.918789724984990789e-15 0.000000000000000000e+00 -7.639679276287677828e-16 -4.076068413211572925e-15 3.518161435266829634e-16 2.018930630826152861e-15 -3.941328160205110172e-15 0.000000000000000000e+00 0.000000000000000000e+00 0.000000000000000000e+00 0.000000000000000000e+00 -2.024982175300356841e-15 -4.973400207237779754e-15 0.000000000000000000e+00 -4.515180580142259262e-16 6.512496297102135926e-15 5.217679440716800343e+00 3.623558744355706018e+00 1.309266326970183414e+01 6.186478684891445923e+00 -4.399431769984424534e+00 5.249281349873331060e+00 -7.425200190716457094e+00 -1.258206050049826352e+01 4.745045282288580069e+01 3.491526400612112724e-01 -4.204696625718102432e+00 1.474117906458077343e+01 0.000000000000000000e+00 0.000000000000000000e+00 0.000000000000000000e+00 2.033100355162174595e-15 1.511455810193633873e-15 0.000000000000000000e+00 2.694436524804844777e-15 2.645471797008206011e-15 0.000000000000000000e+00 -1.927957036563897039e-15 -9.813256854807421904e-16 8.012087712452507431e-16 0.000000000000000000e+00 0.000000000000000000e+00 0.000000000000000000e+00 0.000000000000000000e+00 -4.082333870463366549e-16 6.576156859693879888e-15 0.000000000000000000e+00 -1.478271043737941342e-15 1.579495071895037390e-15 -1.927957036563897039e-15 -9.813256854807421904e-16 8.012087712452507431e-16 0.000000000000000000e+00 -9.462494007251411119e-17 2.641430789007806119e-15 0.000000000000000000e+00 -1.766349536931898744e-15 6.516540552059964197e-15 0.000000000000000000e+00 -3.319170113246828260e-15 1.440442595333032737e-16 -1.927957036563897039e-15 -9.813256854807421904e-16 8.012087712452507431e-16 0.000000000000000000e+00 0.000000000000000000e+00 0.000000000000000000e+00 0.000000000000000000e+00 -1.713537518307677098e-15 -1.643340346087422210e-15 0.000000000000000000e+00 -4.048264476914230760e-16 1.564148119959782420e-15 -1.927957036563897039e-15 -9.813256854807421904e-16 8.012087712452507431e-16 0.000000000000000000e+00 0.000000000000000000e+00 0.000000000000000000e+00 0.000000000000000000e+00 -1.231701289652339574e-15 5.593130643592557082e-15 0.000000000000000000e+00 7.977738650420021481e-16 9.253965977327035449e-15
